<svg width="44" height="43" viewBox="0 0 44 43" version="1.1" xmlns="http://www.w3.org/2000/svg" xmlns:xlink="http://www.w3.org/1999/xlink">
<title>Group</title>
<desc>Created using Figma</desc>
<g id="Canvas" transform="translate(-12027 32549)">
<g id="Group">
<g id="Ellipse 4" filter="url(#filter0_d)">
<mask id="mask0_outline_ins">
<use xlink:href="#path0_fill" fill="white" transform="translate(12027 -32549)"/>
</mask>
<g mask="url(#mask0_outline_ins)">
<use xlink:href="#path1_stroke_2x" transform="translate(12027 -32549)" fill="#FFFFFF"/>
</g>
</g>
<g id="Github  x28 alt x29">
<use xlink:href="#path2_fill" transform="translate(12034.3 -32538.4)" fill="#FFFFFF"/>
</g>
</g>
</g>
<defs>
<filter id="filter0_d" filterUnits="userSpaceOnUse" x="12027" y="-32549" width="44" height="43" color-interpolation-filters="sRGB">
<feFlood flood-opacity="0" result="BackgroundImageFix"/>
<feColorMatrix in="SourceAlpha" type="matrix" values="0 0 0 0 0 0 0 0 0 0 0 0 0 0 0 0 0 0 255 0"/>
<feOffset dx="0" dy="0"/>
<feColorMatrix type="matrix" values="0 0 0 0 0 0 0 0 0 0 0 0 0 0 0 0 0 0 0.25 0"/>
<feBlend mode="normal" in2="BackgroundImageFix" result="effect1_dropShadow"/>
<feBlend mode="normal" in="SourceGraphic" in2="effect1_dropShadow" result="shape"/>
</filter>
<path id="path0_fill" d="M 43.1003 21.5C 43.1003 33.3741 33.4519 43 21.5501 43C 9.64832 43 0 33.3741 0 21.5C 0 9.62588 9.64832 0 21.5501 0C 33.4519 0 43.1003 9.62588 43.1003 21.5Z"/>
<path id="path1_stroke_2x" d="M 41.1003 21.5C 41.1003 32.2652 32.3518 41 21.5501 41L 21.5501 45C 34.5521 45 45.1003 34.4831 45.1003 21.5L 41.1003 21.5ZM 21.5501 41C 10.7485 41 2 32.2652 2 21.5L -2 21.5C -2 34.4831 8.54815 45 21.5501 45L 21.5501 41ZM 2 21.5C 2 10.7348 10.7485 2 21.5501 2L 21.5501 -2C 8.54815 -2 -2 8.51692 -2 21.5L 2 21.5ZM 21.5501 2C 32.3518 2 41.1003 10.7348 41.1003 21.5L 45.1003 21.5C 45.1003 8.51692 34.5521 -2 21.5501 -2L 21.5501 2Z"/>
<path id="path2_fill" d="M 21.4242 0C 21.8057 0.864195 22.0528 2.29953 21.6841 3.35042C 23.192 4.63484 23.7104 7.75727 22.9824 10.3089C 25.1317 10.4725 27.6918 10.2302 29.3442 10.8881C 27.7994 10.6901 25.6895 10.3014 23.6971 10.4367C 23.3195 10.4624 22.7603 10.4224 22.7877 10.9522C 25.0942 11.1327 27.3863 11.3295 29.28 11.9192C 27.4016 11.6131 25.1216 11.1467 22.7877 11.082C 21.8236 12.9798 19.8833 13.9127 17.2048 14.1091C 17.4927 14.7343 18.0441 14.972 18.1787 15.9774C 18.3796 17.4794 17.8644 19.6791 18.3727 20.6802C 18.6166 21.1599 19.0141 21.1726 19.2821 21.5828C 18.6261 22.3572 16.9997 21.4956 16.8146 20.6802C 16.4973 19.2832 17.2978 17.1177 16.4259 16.1706C 16.4872 17.6944 16.0646 19.8342 16.4908 21.1954C 16.6587 21.7308 17.1435 21.9373 17.0102 22.4203C 13.961 22.729 15.2355 18.4834 14.737 15.977C 14.2769 16.0099 14.4791 16.6643 14.4774 16.9437C 14.4644 19.3909 14.9796 22.7475 12.3353 22.4203C 12.258 21.9057 12.6901 21.7311 12.8547 21.2614C 13.3369 19.8846 12.7644 17.8326 12.9855 16.1709C 11.9763 16.93 13.0914 19.5795 12.4661 20.9381C 12.1058 21.72 10.9447 22.0602 10.0641 21.7112C 10.1789 21.129 10.7814 21.223 11.037 20.6805C 11.3944 19.9246 11.0396 18.835 11.1671 17.7171C 9.29918 18.0892 7.85022 17.6631 7.14107 16.4929C 6.82383 15.9676 6.74525 15.348 6.36182 14.8826C 5.98035 14.4168 5.37064 14.354 5.19392 13.7237C 7.50722 13.1682 7.59591 16.0987 9.67348 16.1709C 10.3106 16.194 10.6418 15.9878 11.2313 15.8495C 11.3963 15.1106 11.7494 14.5593 12.2701 14.1735C 9.68489 13.8206 7.54994 13.0176 6.55712 11.0823C 4.20698 11.1975 2.05638 11.5107 0.0645572 11.9836C 1.87249 11.3285 4.10232 11.0937 6.49257 11.0166C 6.35171 10.1723 5.11698 10.4045 4.35044 10.437C 2.92562 10.4995 1.13236 10.6761 0 10.8881C 1.64132 10.3043 3.94451 10.3772 6.16815 10.3726C 5.48802 8.24547 5.72375 4.86642 7.20693 3.60802C 6.78666 2.55128 6.91708 0.822888 7.46647 0C 9.12246 0.0741575 10.1267 0.794591 11.1671 1.48217C 12.4573 1.11627 13.8139 0.934125 15.5818 1.03105C 16.3252 1.07203 17.0982 1.40542 17.6584 1.35272C 18.2077 1.30133 18.8132 0.686282 19.3466 0.45145C 20.0414 0.145388 20.6293 0.0286222 21.4242 0Z"/>
</defs>
</svg>
